<svg width="568" height="238" viewBox="0 0 568 238" fill="none" xmlns="http://www.w3.org/2000/svg">
<path d="M175.238 3.09275C176.873 3.09345 180.754 7.77903 180.754 9.75096C180.754 10.9298 181.092 10.9282 183.004 9.73533C189.905 5.42833 193.577 7.32436 191.716 14.2344C190.922 17.1829 190.889 18.6378 191.608 18.8769C193.586 19.5373 197.754 23.2387 197.754 24.3369C197.754 26.3509 194.474 29.0928 192.065 29.0928C189.795 29.0928 189.715 29.3188 190.334 33.9824C191.572 43.3141 187.756 48.9662 176.993 53.7431C165.059 59.0391 151.673 58.9507 148.136 53.5527C144.208 47.5574 145.942 29.5661 151.336 20.3642C154.386 15.1593 159.901 12.0928 166.214 12.0928C170.272 12.0928 170.754 11.8511 170.754 9.81639C170.754 8.56356 171.455 6.53844 172.311 5.31639C173.167 4.09348 174.484 3.0929 175.238 3.09275ZM165.139 16.0967C157.669 16.0899 152.732 22.3321 150.803 34.2217C149.504 42.2265 149.478 48.5425 150.756 45.5928C151.232 44.4926 151.911 41.8315 152.264 39.6787C152.89 35.8622 152.936 35.8253 154.105 38.1699C154.765 39.4928 156.162 40.7403 157.211 40.9424C158.259 41.1445 161.336 42.8362 164.048 44.7012C166.76 46.567 169.79 48.0926 170.783 48.0928C171.775 48.0929 172.764 48.6245 172.981 49.2744C173.549 50.9789 182.463 46.4672 184.416 43.4863C186.198 40.7675 185.504 36.0934 183.318 36.0928C182.551 36.0927 181.771 35.7358 181.587 35.2998C181.403 34.8635 179.648 33.5288 177.687 32.332C174.314 30.2754 174.026 30.2504 172.401 31.874C170.932 33.3438 170.552 33.3831 169.788 32.1474C168.62 30.2585 170.303 27.1168 172.539 27.0137C173.636 26.9636 173.791 26.7489 172.97 26.4199C172.264 26.1361 171.029 26.4503 170.225 27.1172C169.067 28.0779 168.271 28.0073 166.386 26.7724C165.079 25.9155 163.113 25.4484 162.019 25.7344C158.885 26.5538 158.349 23.4055 161.293 21.4756C163.117 20.2806 165.346 19.9681 169.761 20.2871C173.054 20.5259 175.749 20.5729 175.754 20.3926C175.754 20.2116 174.292 19.172 172.504 18.082C170.659 16.9571 167.475 16.0987 165.139 16.0967ZM166.697 42.2002C167.915 39.9243 170.222 39.4214 171.317 41.1943C172.355 42.8745 168.047 46.786 166.672 45.4111C165.867 44.6062 165.874 43.7371 166.697 42.2002ZM220.754 35.4678C220.754 34.1781 221.308 34.3995 223.206 36.4472C224.555 37.9021 226.242 39.1221 226.956 39.1562C227.67 39.1913 227.199 39.6422 225.91 40.1592C224.62 40.6761 223.33 41.9968 223.043 43.0957C222.756 44.1936 222.176 45.0928 221.754 45.0928C221.332 45.0925 220.752 44.1935 220.465 43.0957C220.178 41.9968 218.963 40.7359 217.767 40.2929C215.612 39.4962 215.617 39.4772 218.172 38.3125C219.592 37.6655 220.754 36.3858 220.754 35.4678ZM178.211 37.1396C180.275 34.8589 181.754 35.2957 181.754 38.1836C181.754 40.5242 179.084 41.8229 177.51 40.249C176.698 39.4371 176.886 38.6045 178.211 37.1396ZM160.289 32.0928C162.436 32.093 162.077 35.8505 159.815 37.0615C157.343 38.3829 156.274 36.8609 157.743 34.1142C158.338 33.0023 159.484 32.0929 160.289 32.0928ZM193.204 24.2217C191.866 22.9948 187.181 22.0005 186.402 22.7783C184.858 24.3232 186.038 25.0927 189.954 25.0928C192.399 25.0927 193.757 24.7286 193.204 24.2217ZM212.809 0.592754C212.85 -0.714704 213.63 0.15037 215.063 3.09275C216.719 6.49372 218.339 8.11268 221.692 9.72166L226.129 11.8525L223.192 12.5205C219.138 13.4425 217.389 14.9462 215.03 19.5459L213.002 23.499L212.321 20.4004C211.528 16.7894 209.513 14.7356 204.824 12.7637L201.453 11.3467L205.181 10.1172C209.062 8.83618 212.693 4.30274 212.809 0.592754ZM188.754 13.0166C188.754 11.3946 185.822 12.0249 183.754 14.0928C181.723 16.1237 181.002 20.0925 182.665 20.0928C183.774 20.0923 188.753 14.3076 188.754 13.0166ZM175.353 7.09275C175.16 7.09546 174.707 8.55654 174.347 10.3428C173.812 12.9855 174.115 13.943 175.972 15.4648C178.213 17.3027 178.26 17.2999 178.565 15.2822C178.736 14.1532 178.161 11.8481 177.289 10.1611C176.417 8.47312 175.545 7.09275 175.353 7.09275Z" fill="#E63F5C"/>
<path d="M540.998 75.5771C548.503 67.5502 560.555 68.3972 566.003 77.334C567.923 80.482 567.991 82.4767 567.994 135.684C567.998 187.303 567.873 191.26 566.021 198.508C562.176 213.54 554.103 223.759 540.808 230.422C529.46 236.109 522.685 237.488 506.498 237.406C472.621 237.234 456.219 227.932 463.75 213.164C467.785 205.251 473.862 204.137 488.498 208.629C495.721 210.845 499.572 211.41 507.998 211.492C517.368 211.582 519.101 211.31 524.105 208.964C533.51 204.554 537.877 196.889 537.954 184.656L537.998 177.719L535.248 180.245C524.841 189.805 510.295 193.597 493.491 191.13C479.068 189.013 467.379 181.722 461.711 171.307C456.4 161.549 456.001 157.843 455.946 117.79C455.889 76.4674 455.998 75.762 463.048 71.874C467.991 69.147 476.978 69.8033 480.613 73.1562C485.768 77.9101 485.997 79.5931 486.014 112.812C486.034 153.555 487.097 157.973 498.201 163.507C507.424 168.103 522.413 166.53 530.118 160.156C537.381 154.148 537.439 153.807 537.998 113.922L538.498 78.25L540.998 75.5771ZM233.866 69.5332C242.099 67.8072 260.077 68.3463 268.498 70.5713C283.065 74.4202 295.95 83.102 297.329 89.999C298.212 94.414 295.858 99.5849 291.808 102.127C286.49 105.465 279.927 104.478 272.1 99.1621C263.764 93.5013 256.687 91.0928 248.389 91.0928C233.777 91.0929 225.434 97.4903 228.956 105.992C230.769 110.369 237.762 113.505 255.498 117.893C281.21 124.254 289.669 128.36 295.721 137.416C299.805 143.527 300.986 147.822 300.992 156.593C301.003 173.455 288.561 186.308 267.998 190.677C253.688 193.718 229.839 191.998 216.355 186.954C209.489 184.385 199.633 177.793 196.882 173.931C193.948 169.809 193.245 162.89 195.424 159.565C197.901 155.786 202.934 153.101 207.552 153.097C211.646 153.093 213.41 154.026 225.469 162.562C233.062 167.936 238.919 169.579 250.498 169.586C261.991 169.594 267.162 167.684 270.331 162.261C271.884 159.603 271.987 158.591 271.008 155.624C268.901 149.239 263.989 146.615 245.529 142.012C221.19 135.943 211.466 131.704 204.981 124.336C194.442 112.363 195.99 92.5603 208.339 81.4043C213.354 76.8733 225.258 71.3372 233.866 69.5332ZM11.0108 21.833C13.8847 21.3 19.8119 22.0009 21.9981 23.1328C22.823 23.5598 24.6231 25.1111 25.9981 26.5801L28.4981 29.251L28.793 56.6719C28.9559 71.7485 29.4098 84.0856 29.8028 84.0928C30.1957 84.0928 31.0577 83.226 31.7197 82.167C33.5958 79.162 41.3173 74.2679 48.7383 71.3789C54.4321 69.163 57.1542 68.7359 65.9981 68.6699C77.9379 68.5819 83.495 69.833 93.0508 74.7568C105.166 80.9998 114.851 92.9039 119.701 107.515C122.118 114.794 122.389 117.076 122.436 130.593C122.483 144.49 122.283 146.169 119.723 153.421C112.973 172.545 99.0401 185.926 80.9981 190.613C76.1241 191.88 71.746 192.193 63.4981 191.864C53.9591 191.484 51.491 191.003 44.919 188.238C40.751 186.484 35.632 183.484 33.544 181.571C29.1653 177.561 28.9992 177.497 28.9942 179.843C28.9882 182.992 25.0258 188.183 21.5078 189.653C13.8289 192.862 4.87098 190.341 1.75002 184.093C0.133203 180.857 0.00101646 175.075 1.62683e-05 107.363C-0.00198347 42.3094 0.178445 33.6838 1.61232 30.1006C3.33929 25.7847 6.9809 22.5801 11.0108 21.833ZM333.498 22.1514C340.019 20.0534 346.978 22.5076 351.437 28.4775C353.434 31.1522 353.507 32.5949 353.788 75.165C353.947 99.3207 354.325 119.086 354.627 119.093C355.15 119.093 369.891 105.98 393.028 84.9316C407.279 71.9673 410.168 70.0918 415.888 70.0967C426.581 70.1047 433.062 79.2823 429.111 88.8203C428.305 90.7664 420.891 97.8391 408.915 108.086L389.992 124.277L411.245 146.217C426.194 161.649 433.071 169.483 434.433 172.626C436.346 177.043 436.346 177.145 434.433 181.74C432.03 187.51 428.583 190.16 422.6 190.834C413.581 191.851 411.327 190.207 387.978 165.594L366.695 143.161L362.096 147.015C353.947 153.847 354.219 153.148 353.84 168.271C353.458 183.56 352.587 185.885 345.927 189.406C341.098 191.958 331.804 191.181 328.275 187.929C322.872 182.949 322.998 184.912 323.002 105.875C323.005 32.9447 323.016 32.5761 325.128 29.1113C327.659 24.9594 329.483 23.4433 333.498 22.1514ZM150.418 73.9795C154.255 71.6395 162.9 71.4742 167.126 73.6592C168.941 74.5981 170.916 76.9022 172.055 79.4092C173.833 83.3272 173.955 86.5772 173.97 130.593C173.98 158.536 173.586 179.035 172.999 181.15C171.408 186.876 167.004 190.345 160.658 190.871C153.25 191.486 148.361 189.1 145.894 183.669C144.175 179.884 144.041 176.135 144.021 131.244C143.997 77.7328 143.976 77.9073 150.418 73.9795ZM72.0156 95.7881C55.7949 90.5494 39.6888 97.7701 32.3008 113.593C29.7748 119.003 29.5048 120.625 29.5518 130.093C29.6148 142.855 31.9283 149.779 38.3252 156.361C45.1881 163.423 50.7532 165.593 61.9981 165.593C70.1261 165.593 72.1961 165.237 76.3281 163.126C82.3781 160.035 87.4583 154.474 90.8633 147.213C93.2091 142.208 93.4981 140.388 93.4981 130.593C93.4981 120.561 93.2418 119.039 90.5928 113.302C86.8837 105.27 79.3315 98.151 72.0156 95.7881Z" fill="#E63F5C"/>
</svg>
