<svg width="871" height="238" viewBox="0 0 871 238" fill="none" xmlns="http://www.w3.org/2000/svg">
<path d="M477.779 3.09275C479.413 3.09345 483.294 7.77903 483.295 9.75096C483.295 10.9298 483.633 10.9282 485.545 9.73533C492.446 5.42833 496.117 7.32436 494.256 14.2344C493.463 17.1829 493.429 18.6378 494.148 18.8769C496.126 19.5373 500.294 23.2387 500.295 24.3369C500.294 26.3509 497.014 29.0928 494.605 29.0928C492.336 29.0928 492.256 29.3188 492.875 33.9824C494.112 43.3141 490.297 48.9662 479.534 53.7431C467.6 59.0391 454.213 58.9507 450.676 53.5527C446.749 47.5574 448.483 29.5661 453.877 20.3642C456.927 15.1593 462.442 12.0928 468.755 12.0928C472.812 12.0928 473.294 11.8511 473.295 9.81639C473.295 8.56356 473.995 6.53844 474.851 5.31639C475.707 4.09348 477.025 3.0929 477.779 3.09275ZM467.679 16.0967C460.21 16.0899 455.272 22.3321 453.343 34.2217C452.044 42.2265 452.019 48.5425 453.297 45.5928C453.772 44.4926 454.451 41.8315 454.804 39.6787C455.43 35.8622 455.476 35.8253 456.645 38.1699C457.305 39.4928 458.703 40.7403 459.752 40.9424C460.8 41.1445 463.877 42.8362 466.588 44.7012C469.3 46.567 472.331 48.0926 473.324 48.0928C474.316 48.0929 475.304 48.6245 475.521 49.2744C476.09 50.9789 485.003 46.4672 486.957 43.4863C488.739 40.7675 488.045 36.0934 485.859 36.0928C485.091 36.0927 484.312 35.7358 484.128 35.2998C483.944 34.8635 482.189 33.5288 480.227 32.332C476.855 30.2754 476.567 30.2504 474.942 31.874C473.472 33.3438 473.093 33.3831 472.329 32.1474C471.161 30.2585 472.844 27.1168 475.08 27.0137C476.177 26.9636 476.331 26.7489 475.51 26.4199C474.804 26.1361 473.569 26.4503 472.765 27.1172C471.607 28.0779 470.811 28.0073 468.926 26.7724C467.619 25.9155 465.653 25.4484 464.559 25.7344C461.426 26.5538 460.889 23.4055 463.834 21.4756C465.658 20.2806 467.887 19.9681 472.301 20.2871C475.594 20.5259 478.289 20.5729 478.295 20.3926C478.295 20.2116 476.833 19.172 475.045 18.082C473.2 16.9571 470.015 16.0987 467.679 16.0967ZM469.238 42.2002C470.456 39.9243 472.762 39.4214 473.857 41.1943C474.895 42.8745 470.587 46.786 469.213 45.4111C468.408 44.6062 468.415 43.7371 469.238 42.2002ZM523.295 35.4678C523.295 34.1781 523.849 34.3995 525.747 36.4472C527.096 37.9021 528.783 39.1221 529.497 39.1562C530.21 39.1913 529.74 39.6422 528.451 40.1592C527.161 40.6761 525.871 41.9968 525.584 43.0957C525.297 44.1936 524.717 45.0928 524.295 45.0928C523.873 45.0925 523.292 44.1935 523.005 43.0957C522.718 41.9968 521.503 40.7359 520.307 40.2929C518.153 39.4962 518.157 39.4772 520.713 38.3125C522.132 37.6655 523.294 36.3858 523.295 35.4678ZM480.752 37.1396C482.815 34.8589 484.295 35.2957 484.295 38.1836C484.294 40.5242 481.624 41.8229 480.05 40.249C479.239 39.4371 479.427 38.6045 480.752 37.1396ZM462.83 32.0928C464.977 32.093 464.617 35.8505 462.355 37.0615C459.884 38.3829 458.814 36.8609 460.284 34.1142C460.879 33.0023 462.025 32.0929 462.83 32.0928ZM495.745 24.2217C494.407 22.9948 489.721 22.0005 488.943 22.7783C487.398 24.3232 488.579 25.0927 492.495 25.0928C494.94 25.0927 496.298 24.7286 495.745 24.2217ZM515.349 0.592755C515.39 -0.714704 516.17 0.15037 517.603 3.09275C519.259 6.49372 520.879 8.11268 524.233 9.72166L528.67 11.8525L525.733 12.5205C521.678 13.4425 519.93 14.9462 517.571 19.5459L515.543 23.499L514.862 20.4004C514.069 16.7894 512.054 14.7356 507.365 12.7637L503.994 11.3467L507.721 10.1172C511.602 8.83618 515.233 4.30274 515.349 0.592755ZM491.295 13.0166C491.295 11.3946 488.363 12.0249 486.295 14.0928C484.264 16.1237 483.543 20.0925 485.206 20.0928C486.315 20.0923 491.293 14.3076 491.295 13.0166ZM477.893 7.09275C477.701 7.09546 477.248 8.55654 476.887 10.3428C476.352 12.9855 476.656 13.943 478.512 15.4648C480.753 17.3027 480.8 17.2999 481.105 15.2822C481.276 14.1532 480.702 11.8481 479.83 10.1611C478.958 8.47312 478.085 7.09275 477.893 7.09275Z" fill="#E63F5C"/>
<path d="M843.539 75.5771C851.044 67.5503 863.095 68.3972 868.543 77.334C870.463 80.482 870.532 82.4762 870.535 135.683C870.539 187.302 870.414 191.26 868.561 198.508C864.716 213.54 856.643 223.759 843.348 230.422C832 236.109 825.225 237.488 809.039 237.406C775.162 237.234 758.76 227.932 766.291 213.164C770.326 205.251 776.403 204.137 791.039 208.629C798.262 210.845 802.113 211.41 810.539 211.492C819.909 211.582 821.642 211.31 826.646 208.964C836.051 204.554 840.418 196.889 840.495 184.656L840.539 177.719L837.789 180.245C827.382 189.805 812.836 193.597 796.032 191.13C781.609 189.013 769.919 181.722 764.251 171.307C758.941 161.549 758.542 157.843 758.487 117.79C758.43 76.4674 758.539 75.7619 765.588 71.874C770.531 69.147 779.519 69.8033 783.154 73.1562C788.309 77.9101 788.537 79.593 788.554 112.812C788.574 153.555 789.638 157.973 800.742 163.507C809.965 168.103 824.954 166.53 832.659 160.156C839.922 154.148 839.98 153.807 840.539 113.922L841.039 78.25L843.539 75.5771ZM536.407 69.5332C544.64 67.8072 562.618 68.3463 571.039 70.5713C585.605 74.4202 598.49 83.102 599.87 89.999C600.753 94.414 598.398 99.5849 594.348 102.127C589.03 105.465 582.467 104.478 574.64 99.1621C566.304 93.5013 559.227 91.0928 550.929 91.0928C536.318 91.0929 527.975 97.4903 531.497 105.992C533.31 110.369 540.303 113.505 558.039 117.893C583.75 124.254 592.209 128.36 598.261 137.416C602.345 143.527 603.527 147.822 603.533 156.593C603.544 173.455 591.102 186.308 570.539 190.677C556.229 193.718 532.379 191.998 518.896 186.954C512.03 184.385 502.173 177.793 499.422 173.931C496.489 169.809 495.786 162.89 497.964 159.565C500.441 155.786 505.474 153.101 510.092 153.097C514.186 153.093 515.95 154.026 528.009 162.562C535.602 167.935 541.46 169.579 553.039 169.586C564.532 169.594 569.703 167.684 572.872 162.261C574.424 159.603 574.527 158.591 573.548 155.624C571.441 149.239 566.529 146.615 548.07 142.012C523.731 135.943 514.007 131.704 507.522 124.336C496.982 112.363 498.531 92.5603 510.879 81.4043C515.894 76.8733 527.799 71.3372 536.407 69.5332ZM313.551 21.833C316.425 21.3 322.352 22.0009 324.539 23.1328C325.364 23.5598 327.164 25.1111 328.539 26.5801L331.039 29.251L331.334 56.6719C331.496 71.7481 331.95 84.0849 332.343 84.0928C332.736 84.0928 333.598 83.2259 334.26 82.167C336.136 79.162 343.858 74.2679 351.279 71.3789C356.973 69.163 359.695 68.7359 368.539 68.6699C380.478 68.5819 386.036 69.833 395.591 74.7568C407.706 80.9997 417.392 92.9039 422.242 107.515C424.659 114.794 424.929 117.076 424.976 130.593C425.023 144.49 424.823 146.169 422.263 153.421C415.513 172.545 401.581 185.926 383.539 190.613C378.665 191.88 374.287 192.193 366.039 191.864C356.5 191.484 354.031 191.003 347.459 188.238C343.292 186.484 338.172 183.484 336.084 181.571C331.706 177.561 331.54 177.497 331.535 179.843C331.529 182.992 327.566 188.183 324.048 189.653C316.369 192.862 307.412 190.341 304.291 184.093C302.674 180.857 302.542 175.075 302.541 107.363C302.539 42.3074 302.719 33.6826 304.153 30.0996C305.88 25.784 309.522 22.5801 313.551 21.833ZM636.039 22.1514C642.56 20.0534 649.518 22.5076 653.977 28.4775C655.975 31.1522 656.048 32.5948 656.329 75.165C656.488 99.3198 656.866 119.084 657.167 119.093C657.69 119.093 672.432 105.98 695.569 84.9316C709.819 71.9673 712.709 70.0918 718.428 70.0967C729.121 70.1047 735.603 79.2823 731.652 88.8203C730.846 90.7664 723.431 97.8391 711.456 108.086L692.533 124.277L713.786 146.217C728.734 161.649 735.612 169.483 736.973 172.626C738.886 177.043 738.886 177.145 736.973 181.74C734.57 187.51 731.123 190.16 725.14 190.834C716.122 191.851 713.868 190.207 690.518 165.594L669.236 143.161L664.636 147.015C656.487 153.847 656.759 153.148 656.38 168.271C655.998 183.56 655.127 185.885 648.467 189.406C643.638 191.958 634.345 191.181 630.816 187.929C625.413 182.949 625.538 184.912 625.542 105.875C625.545 32.9448 625.557 32.5761 627.668 29.1113C630.199 24.9594 632.024 23.4433 636.039 22.1514ZM452.959 73.9795C456.795 71.6395 465.44 71.4742 469.667 73.6592C471.481 74.5981 473.456 76.9022 474.595 79.4092C476.373 83.3271 476.495 86.5772 476.51 130.593C476.52 158.536 476.127 179.035 475.54 181.15C473.949 186.876 469.545 190.345 463.199 190.871C455.791 191.486 450.901 189.1 448.434 183.669C446.715 179.884 446.581 176.135 446.561 131.244C446.537 77.7329 446.517 77.9073 452.959 73.9795ZM374.556 95.7881C358.335 90.5494 342.229 97.7701 334.841 113.593C332.315 119.003 332.045 120.625 332.092 130.093C332.155 142.855 334.469 149.779 340.866 156.361C347.729 163.423 353.294 165.593 364.539 165.593C372.667 165.593 374.737 165.237 378.869 163.126C384.919 160.035 389.999 154.474 393.404 147.213C395.75 142.208 396.039 140.388 396.039 130.593C396.039 120.561 395.782 119.039 393.133 113.302C389.424 105.27 381.872 98.151 374.556 95.7881Z" fill="#E63F5C"/>
<path d="M101.417 10.7288C107.085 10.729 120.551 26.9833 120.551 33.8236C120.551 37.9131 121.724 37.906 128.356 33.7679C152.293 18.8287 165.03 25.4052 158.575 49.3734C155.82 59.6025 155.703 64.6498 158.197 65.4788C165.058 67.7683 179.518 80.6097 179.518 84.4183C179.518 91.4042 168.14 100.915 159.785 100.915C151.911 100.915 151.634 101.696 153.781 117.873C158.075 150.243 144.839 169.848 107.505 186.418C66.1101 204.788 19.6783 204.483 7.40956 185.759C-6.21539 164.964 -0.200816 102.556 18.5092 70.637C29.0886 52.5825 48.2188 41.9476 70.1166 41.9476C84.1921 41.9476 85.8636 41.1078 85.8637 34.0491C85.8637 29.7029 88.2958 22.6785 91.265 18.4398C94.2341 14.1978 98.802 10.7291 101.417 10.7288ZM66.3871 55.8363C40.4763 55.8122 23.3516 77.4638 16.6605 118.706C12.1548 146.473 12.0646 168.381 16.4974 158.149C18.1485 154.333 20.5035 145.102 21.7279 137.634C23.8992 124.395 24.0588 124.267 28.1137 132.401C30.403 136.99 35.2495 141.315 38.8881 142.016C42.5238 142.717 53.1964 148.585 62.6029 155.054C72.0096 161.526 82.5195 166.819 85.9642 166.82C89.4049 166.82 92.8353 168.662 93.5883 170.916C95.5585 176.83 126.479 161.18 133.253 150.84C139.434 141.409 137.027 125.196 129.445 125.196C126.781 125.196 124.078 123.958 123.44 122.446C122.805 120.933 116.718 116.302 109.912 112.15C98.2127 105.015 97.2131 104.929 91.5765 110.562C86.4779 115.66 85.1631 115.795 82.5131 111.508C78.462 104.956 84.2994 94.0611 92.0551 93.7034C95.8601 93.53 96.3979 92.7841 93.5502 91.6429C91.1012 90.6581 86.8173 91.7474 84.0287 94.0609C80.0122 97.3939 77.2512 97.148 70.7133 92.8646C66.1797 89.8919 59.3596 88.272 55.5648 89.264C44.6944 92.1079 42.8321 81.185 53.0473 74.4906C59.374 70.3457 67.1056 69.263 82.4193 70.3695C93.852 71.1985 103.207 71.3615 103.207 70.7337C103.206 70.1052 98.1351 66.5014 91.934 62.721C85.5342 58.8189 74.4898 55.8432 66.3871 55.8363ZM71.7914 146.379C76.0162 138.485 84.0157 136.74 87.8139 142.89C91.4168 148.718 76.475 162.286 71.7055 157.517C68.9132 154.725 68.9368 151.71 71.7914 146.379ZM259.298 123.028C259.298 118.553 261.22 119.32 267.803 126.424C272.482 131.471 278.334 135.703 280.811 135.821C283.287 135.942 281.654 137.506 277.183 139.299C272.709 141.092 268.233 145.675 267.238 149.487C266.242 153.295 264.231 156.414 262.767 156.414C261.303 156.414 259.291 153.295 258.295 149.487C257.3 145.675 253.085 141.301 248.937 139.764C241.462 137 241.476 136.934 250.342 132.893C255.268 130.649 259.298 126.212 259.298 123.028ZM111.73 128.827C118.889 120.915 124.02 122.428 124.02 132.446C124.02 140.566 114.758 145.071 109.298 139.612C106.482 136.795 107.134 133.909 111.73 128.827ZM49.5639 111.321C57.0109 111.321 55.766 124.352 47.9203 128.553C39.3458 133.139 35.634 127.86 40.7328 118.331C42.7966 114.474 46.7716 111.321 49.5639 111.321ZM163.736 84.0189C159.094 79.7629 142.841 76.3117 140.142 79.0101C134.783 84.3691 138.879 87.0403 152.462 87.0404C160.943 87.0404 165.654 85.7775 163.736 84.0189ZM231.74 2.05696C231.882 -2.47951 234.588 0.520873 239.558 10.7288C245.302 22.5257 250.917 28.1419 262.551 33.723L277.942 41.1116L267.754 43.4281C253.689 46.6262 247.626 51.8436 239.444 67.7991L232.409 81.5111L230.046 70.762C227.296 58.2367 220.307 51.1149 204.042 44.2747L192.349 39.3597L205.281 35.0931C218.742 30.6495 231.337 14.9257 231.74 2.05696ZM148.3 45.1488C148.3 39.5227 138.13 41.7119 130.956 48.8851C123.912 55.9299 121.411 69.6959 127.179 69.6966C131.026 69.6964 148.3 49.6233 148.3 45.1488ZM101.817 24.6038C101.151 24.6039 99.5797 29.6753 98.3275 35.8773C96.4718 45.0449 97.5221 48.3646 103.963 53.6439C111.736 60.0192 111.899 60.0087 112.957 53.0091C113.551 49.093 111.556 41.0971 108.532 35.2454C105.508 29.3915 102.483 24.6056 101.817 24.6038Z" fill="#E63F5C"/>
</svg>
